HIERARCHY
ROOT Hips
{
	OFFSET 0.000000 0.000000 0.000000
	CHANNELS 6 Xposition Yposition Zposition Zrotation Yrotation Xrotation 
	JOINT LHipJoint
	{
		OFFSET 0.000000 0.000000 0.000000
		CHANNELS 3 Zrotation Yrotation Xrotation
		JOINT LeftUpLeg
		{
			OFFSET 1.363060 -1.794630 0.839290
			CHANNELS 3 Zrotation Yrotation Xrotation
			JOINT LeftLeg
			{
				OFFSET 2.448110 -6.726130 0.000000
				CHANNELS 3 Zrotation Yrotation Xrotation
				JOINT LeftFoot
				{
					OFFSET 2.562200 -7.039590 0.000000
					CHANNELS 3 Zrotation Yrotation Xrotation
					JOINT LeftToeBase
					{
						OFFSET 0.157640 -0.433110 2.322550
						CHANNELS 3 Zrotation Yrotation Xrotation
						End Site
						{
							OFFSET 0.000000 0.000000 0.000000
						}
					}
				}
			}
		}
	}
	JOINT RHipJoint
	{
		OFFSET 0.000000 0.000000 0.000000
		CHANNELS 3 Zrotation Yrotation Xrotation
		JOINT RightUpLeg
		{
			OFFSET -1.305520 -1.794630 0.839290
			CHANNELS 3 Zrotation Yrotation Xrotation
			JOINT RightLeg
			{
				OFFSET -2.542530 -6.985550 0.000000
				CHANNELS 3 Zrotation Yrotation Xrotation
				JOINT RightFoot
				{
					OFFSET -2.568260 -7.056230 0.000000
					CHANNELS 3 Zrotation Yrotation Xrotation
					JOINT RightToeBase
					{
						OFFSET -0.164730 -0.452590 2.363150
						CHANNELS 3 Zrotation Yrotation Xrotation
						End Site
						{
							OFFSET 0.000000 0.000000 0.000000
						}
					}
				}
			}
		}
	}
	JOINT LowerBack
	{
		OFFSET 0.000000 0.000000 0.000000
		CHANNELS 3 Zrotation Yrotation Xrotation
		JOINT Spine
		{
			OFFSET 0.028270 2.035590 -0.193380
			CHANNELS 3 Zrotation Yrotation Xrotation
			JOINT Spine1
			{
				OFFSET 0.056720 2.048850 -0.042750
				CHANNELS 3 Zrotation Yrotation Xrotation
				JOINT Neck
				{
					OFFSET 0.000000 0.000000 0.000000
					CHANNELS 3 Zrotation Yrotation Xrotation
					JOINT Neck1
					{
						OFFSET -0.054170 1.746240 0.172020
						CHANNELS 3 Zrotation Yrotation Xrotation
						JOINT Head
						{
							OFFSET 0.104070 1.761360 -0.123970
							CHANNELS 3 Zrotation Yrotation Xrotation
							End Site
							{
								OFFSET 0.000000 0.000000 0.000000
							}
						}
					}
				}
				JOINT LeftShoulder
				{
					OFFSET 0.000000 0.000000 0.000000
					CHANNELS 3 Zrotation Yrotation Xrotation
					JOINT LeftArm
					{
						OFFSET 3.362410 1.200890 -0.311210
						CHANNELS 3 Zrotation Yrotation Xrotation
						JOINT LeftForeArm
						{
							OFFSET 4.983000 -0.000000 -0.000000
							CHANNELS 3 Zrotation Yrotation Xrotation
							JOINT LeftHand
							{
								OFFSET 3.483560 -0.000000 -0.000000
								CHANNELS 3 Zrotation Yrotation Xrotation
								JOINT LeftFingerBase
								{
									OFFSET 0.000000 0.000000 0.000000
									CHANNELS 3 Zrotation Yrotation Xrotation
									JOINT LeftHandIndex1
									{
										OFFSET 0.715260 -0.000000 -0.000000
										CHANNELS 3 Zrotation Yrotation Xrotation
										End Site
										{
											OFFSET 0.000000 0.000000 0.000000
										}
									}
								}
								JOINT LThumb
								{
									OFFSET 0.000000 0.000000 0.000000
									CHANNELS 3 Zrotation Yrotation Xrotation
									End Site
									{
										OFFSET 0.000000 0.000000 0.000000
									}
								}
							}
						}
					}
				}
				JOINT RightShoulder
				{
					OFFSET 0.000000 0.000000 0.000000
					CHANNELS 3 Zrotation Yrotation Xrotation
					JOINT RightArm
					{
						OFFSET -3.136600 1.374050 -0.404650
						CHANNELS 3 Zrotation Yrotation Xrotation
						JOINT RightForeArm
						{
							OFFSET -5.241900 -0.000000 -0.000000
							CHANNELS 3 Zrotation Yrotation Xrotation
							JOINT RightHand
							{
								OFFSET -3.444170 -0.000000 -0.000000
								CHANNELS 3 Zrotation Yrotation Xrotation
								JOINT RightFingerBase
								{
									OFFSET 0.000000 0.000000 0.000000
									CHANNELS 3 Zrotation Yrotation Xrotation
									JOINT RightHandIndex1
									{
										OFFSET -0.622530 -0.000000 -0.000000
										CHANNELS 3 Zrotation Yrotation Xrotation
										End Site
										{
											OFFSET 0.000000 0.000000 0.000000
										}
									}
								}
								JOINT RThumb
								{
									OFFSET 0.000000 0.000000 0.000000
									CHANNELS 3 Zrotation Yrotation Xrotation
									End Site
									{
										OFFSET 0.000000 0.000000 0.000000
									}
								}
							}
						}
					}
				}
			}
		}
	}
}
MOTION
Frames: 5
Frame Time: 0.008333
-23.894582 17.390403 7.337734 -173.049075 -21.929658 -172.367795 15.395790 2.743702 -3.258217 -6.231982 -25.387159 -6.163758 -8.845167 3.906543 9.466622 -5.379002 18.788137 -5.678196 12.498400 -18.593500 -67.560200 -22.313730 -2.608742 -3.181852 54.854605 34.374531 17.292700 14.114267 6.941750 -12.371982 -5.946750 -25.352617 -58.367983 -1.744100 -8.311400 23.664000 4.666835 0.578585 12.309243 1.969884 0.949678 -4.356247 4.274926 0.282054 -14.951695 -4.896645 -6.370858 -16.637525 11.323931 -9.383272 11.645174 4.296500 -4.346900 11.014900 5.365244 -6.393932 1.814743 -30.826175 -0.044298 -25.842302 147.956821 -36.880131 -110.475597 -0.817789 -0.371280 37.029023 71.711852 38.211564 63.224300 -7.125000 0.000000 0.000000 116.111800 -74.500200 -131.271000 -7.489125 6.613042 1.391059 30.356501 -14.775058 -31.376196 -145.721477 39.840987 -108.319871 2.101103 -0.078184 13.797731 -44.469791 -6.015218 6.679400 7.125000 0.000000 0.000000 -17.051400 -38.649100 -2.762900 
-23.886922 17.391498 7.343862 -173.084157 -22.002393 -172.286417 15.398758 2.721701 -3.266916 -6.202628 -25.451662 -6.234437 -8.850438 3.896615 9.378846 -5.426483 18.929591 -5.603686 12.497900 -18.593300 -67.558600 -22.298874 -2.601297 -3.184501 54.740564 34.329177 17.131242 14.106917 6.925556 -12.386667 -5.920930 -25.310582 -58.314038 -1.736400 -8.294000 23.610500 4.673382 0.606772 12.345219 1.930304 1.000844 -4.344788 4.183243 0.300140 -14.960687 -5.203438 -6.335214 -16.472099 11.428441 -9.276092 11.692906 4.448100 -4.330300 11.020000 5.353229 -6.393819 1.814387 -30.758145 -0.100126 -25.819884 147.880574 -36.959769 -110.427418 -0.819414 -0.368880 37.090599 71.783611 38.265471 63.350400 -7.125000 0.000000 0.000000 116.500500 -74.461600 -131.658300 -7.496864 6.609619 1.391083 30.307344 -14.818598 -31.369577 -145.727459 39.844309 -108.330314 2.096974 -0.081799 13.786701 -44.387082 -5.938384 6.576400 7.125000 0.000000 0.000000 -16.957100 -38.529100 -2.798500 
-23.880465 17.392811 7.348787 -173.105471 -22.055282 -172.239931 15.401588 2.708813 -3.270261 -6.180469 -25.533237 -6.254852 -8.857143 3.876892 9.300214 -5.432697 18.952421 -5.617040 12.456800 -18.577100 -67.429500 -22.288993 -2.598084 -3.188933 54.657284 34.279441 16.998865 14.106212 6.902674 -12.376790 -5.895264 -25.293573 -58.257850 -1.716300 -8.248400 23.471100 4.708820 0.633605 12.389634 1.897224 1.055038 -4.331335 4.094611 0.317324 -14.965496 -5.489891 -6.296056 -16.323476 11.506989 -9.168057 11.747471 4.580000 -4.312600 11.028600 5.346129 -6.394112 1.813555 -30.733098 -0.175293 -25.764032 147.826964 -37.010823 -110.393325 -0.823675 -0.365811 37.214891 71.846114 38.303456 63.458600 -7.125000 0.000000 0.000000 116.807900 -74.425400 -131.970100 -7.504417 6.603065 1.390730 30.283344 -14.819589 -31.340359 -145.735635 39.842872 -108.342958 2.095608 -0.094766 13.817796 -44.259407 -5.716681 6.310600 7.125000 0.000000 0.000000 -16.793200 -38.199300 -2.910700 
-23.875103 17.394233 7.352617 -173.118506 -22.094329 -172.221390 15.403759 2.703052 -3.269306 -6.164533 -25.621065 -6.239491 -8.864845 3.849946 9.229092 -5.404482 18.876051 -5.693366 12.385900 -18.549100 -67.206900 -22.284162 -2.598463 -3.194910 54.604366 34.223293 16.893887 14.110931 6.874613 -12.346036 -5.875413 -25.279903 -58.206496 -1.690700 -8.189800 23.292100 4.765555 0.657059 12.434176 1.872367 1.106764 -4.317436 4.010855 0.331816 -14.960098 -5.699359 -6.256173 -16.220361 11.522058 -9.074747 11.817194 4.656300 -4.296300 11.048500 5.344221 -6.394388 1.812554 -30.723447 -0.239483 -25.716388 147.801593 -37.032607 -110.376231 -0.827546 -0.363617 37.333086 71.868652 38.321989 63.501800 -7.125000 0.000000 0.000000 116.939800 -74.411800 -132.101500 -7.509047 6.593507 1.388759 30.279594 -14.779126 -31.291474 -145.741652 39.839468 -108.353916 2.096054 -0.111504 13.884087 -44.127915 -5.451292 6.000200 7.125000 0.000000 0.000000 -16.618900 -37.808400 -3.043900 
-23.870616 17.395437 7.355243 -173.123830 -22.127896 -172.222517 15.404972 2.702545 -3.266225 -6.156896 -25.697489 -6.206668 -8.872598 3.821174 9.165955 -5.376864 18.800863 -5.765543 12.336600 -18.529400 -67.051900 -22.284261 -2.602158 -3.201940 54.578908 34.155686 16.815643 14.119690 6.845044 -12.302561 -5.861398 -25.259813 -58.156392 -1.668400 -8.138200 23.134700 4.841335 0.672923 12.470630 1.856820 1.148467 -4.305160 3.936604 0.340440 -14.945248 -5.826598 -6.221654 -16.165021 11.470516 -9.007006 11.905349 4.672300 -4.285900 11.083500 5.347237 -6.394317 1.811622 -30.730963 -0.271047 -25.691265 147.811956 -37.019930 -110.380019 -0.830434 -0.362962 37.419600 71.830345 38.306430 63.443700 -7.125000 0.000000 0.000000 116.786400 -74.432700 -131.943100 -7.509491 6.581422 1.384863 30.275118 -14.708443 -31.224595 -145.744349 39.836103 -108.360927 2.097055 -0.126025 13.962814 -44.033851 -5.237840 5.754600 7.125000 0.000000 0.000000 -16.490700 -37.495500 -3.150000 
